<svg width="36" height="36" viewBox="0 0 36 36" fill="none" xmlns="http://www.w3.org/2000/svg">
<path d="M17.5 7.25C11.8391 7.25 7.25 11.8391 7.25 17.5H8.75C8.75 12.6675 12.6675 8.75 17.5 8.75V7.25ZM27.75 17.5C27.75 11.8391 23.1609 7.25 17.5 7.25V8.75C22.3325 8.75 26.25 12.6675 26.25 17.5H27.75ZM17.5 27.75C23.1609 27.75 27.75 23.1609 27.75 17.5H26.25C26.25 22.3325 22.3325 26.25 17.5 26.25V27.75ZM17.5 26.25C12.6675 26.25 8.75 22.3325 8.75 17.5H7.25C7.25 23.1609 11.8391 27.75 17.5 27.75V26.25Z" fill="white"/>
<path d="M25 25L28.5355 28.5355" stroke="white" stroke-width="1.5" stroke-linecap="round" stroke-linejoin="round"/>
</svg>
